<svg id="visual" viewBox="0 0 900 600" width="900" height="600" xmlns="http://www.w3.org/2000/svg" xmlns:xlink="http://www.w3.org/1999/xlink" version="1.1"><path d="M0 217L7.5 201C15 185 30 153 45 143C60 133 75 145 90 153C105 161 120 165 135 171C150 177 165 185 180 185C195 185 210 177 225 179C240 181 255 193 270 185C285 177 300 149 315 132C330 115 345 109 360 115C375 121 390 139 405 140C420 141 435 125 450 122C465 119 480 129 495 134C510 139 525 139 540 138C555 137 570 135 585 131C600 127 615 121 630 118C645 115 660 115 675 128C690 141 705 167 720 176C735 185 750 177 765 175C780 173 795 177 810 176C825 175 840 169 855 164C870 159 885 155 892.5 153L900 151L900 0L892.5 0C885 0 870 0 855 0C840 0 825 0 810 0C795 0 780 0 765 0C750 0 735 0 720 0C705 0 690 0 675 0C660 0 645 0 630 0C615 0 600 0 585 0C570 0 555 0 540 0C525 0 510 0 495 0C480 0 465 0 450 0C435 0 420 0 405 0C390 0 375 0 360 0C345 0 330 0 315 0C300 0 285 0 270 0C255 0 240 0 225 0C210 0 195 0 180 0C165 0 150 0 135 0C120 0 105 0 90 0C75 0 60 0 45 0C30 0 15 0 7.5 0L0 0Z" fill="#aafd97"></path><path d="M0 271L7.5 260C15 249 30 227 45 220C60 213 75 221 90 230C105 239 120 249 135 258C150 267 165 275 180 275C195 275 210 267 225 266C240 265 255 271 270 260C285 249 300 221 315 207C330 193 345 193 360 200C375 207 390 221 405 222C420 223 435 211 450 206C465 201 480 203 495 204C510 205 525 205 540 202C555 199 570 193 585 191C600 189 615 191 630 194C645 197 660 201 675 215C690 229 705 253 720 259C735 265 750 253 765 246C780 239 795 237 810 233C825 229 840 223 855 223C870 223 885 229 892.5 232L900 235L900 149L892.5 151C885 153 870 157 855 162C840 167 825 173 810 174C795 175 780 171 765 173C750 175 735 183 720 174C705 165 690 139 675 126C660 113 645 113 630 116C615 119 600 125 585 129C570 133 555 135 540 136C525 137 510 137 495 132C480 127 465 117 450 120C435 123 420 139 405 138C390 137 375 119 360 113C345 107 330 113 315 130C300 147 285 175 270 183C255 191 240 179 225 177C210 175 195 183 180 183C165 183 150 175 135 169C120 163 105 159 90 151C75 143 60 131 45 141C30 151 15 183 7.5 199L0 215Z" fill="#a0f58d"></path><path d="M0 319L7.5 311C15 303 30 287 45 283C60 279 75 287 90 295C105 303 120 311 135 318C150 325 165 331 180 330C195 329 210 321 225 319C240 317 255 321 270 309C285 297 300 269 315 259C330 249 345 257 360 270C375 283 390 301 405 302C420 303 435 287 450 278C465 269 480 267 495 265C510 263 525 261 540 260C555 259 570 259 585 262C600 265 615 271 630 269C645 267 660 257 675 269C690 281 705 315 720 327C735 339 750 329 765 322C780 315 795 311 810 303C825 295 840 283 855 284C870 285 885 299 892.5 306L900 313L900 233L892.5 230C885 227 870 221 855 221C840 221 825 227 810 231C795 235 780 237 765 244C750 251 735 263 720 257C705 251 690 227 675 213C660 199 645 195 630 192C615 189 600 187 585 189C570 191 555 197 540 200C525 203 510 203 495 202C480 201 465 199 450 204C435 209 420 221 405 220C390 219 375 205 360 198C345 191 330 191 315 205C300 219 285 247 270 258C255 269 240 263 225 264C210 265 195 273 180 273C165 273 150 265 135 256C120 247 105 237 90 228C75 219 60 211 45 218C30 225 15 247 7.5 258L0 269Z" fill="#95ee83"></path><path d="M0 361L7.5 355C15 349 30 337 45 333C60 329 75 333 90 342C105 351 120 365 135 375C150 385 165 391 180 388C195 385 210 373 225 368C240 363 255 365 270 355C285 345 300 323 315 318C330 313 345 325 360 335C375 345 390 353 405 353C420 353 435 345 450 338C465 331 480 325 495 322C510 319 525 319 540 316C555 313 570 307 585 307C600 307 615 313 630 315C645 317 660 315 675 330C690 345 705 377 720 386C735 395 750 381 765 376C780 371 795 375 810 367C825 359 840 339 855 336C870 333 885 347 892.5 354L900 361L900 311L892.5 304C885 297 870 283 855 282C840 281 825 293 810 301C795 309 780 313 765 320C750 327 735 337 720 325C705 313 690 279 675 267C660 255 645 265 630 267C615 269 600 263 585 260C570 257 555 257 540 258C525 259 510 261 495 263C480 265 465 267 450 276C435 285 420 301 405 300C390 299 375 281 360 268C345 255 330 247 315 257C300 267 285 295 270 307C255 319 240 315 225 317C210 319 195 327 180 328C165 329 150 323 135 316C120 309 105 301 90 293C75 285 60 277 45 281C30 285 15 301 7.5 309L0 317Z" fill="#8be679"></path><path d="M0 487L7.5 490C15 493 30 499 45 503C60 507 75 509 90 510C105 511 120 511 135 511C150 511 165 511 180 509C195 507 210 503 225 505C240 507 255 515 270 513C285 511 300 499 315 502C330 505 345 523 360 527C375 531 390 521 405 519C420 517 435 523 450 519C465 515 480 501 495 492C510 483 525 479 540 477C555 475 570 475 585 481C600 487 615 499 630 509C645 519 660 527 675 531C690 535 705 535 720 530C735 525 750 515 765 514C780 513 795 521 810 524C825 527 840 525 855 522C870 519 885 515 892.5 513L900 511L900 359L892.5 352C885 345 870 331 855 334C840 337 825 357 810 365C795 373 780 369 765 374C750 379 735 393 720 384C705 375 690 343 675 328C660 313 645 315 630 313C615 311 600 305 585 305C570 305 555 311 540 314C525 317 510 317 495 320C480 323 465 329 450 336C435 343 420 351 405 351C390 351 375 343 360 333C345 323 330 311 315 316C300 321 285 343 270 353C255 363 240 361 225 366C210 371 195 383 180 386C165 389 150 383 135 373C120 363 105 349 90 340C75 331 60 327 45 331C30 335 15 347 7.5 353L0 359Z" fill="#80df70"></path><path d="M0 601L7.5 601C15 601 30 601 45 601C60 601 75 601 90 601C105 601 120 601 135 601C150 601 165 601 180 601C195 601 210 601 225 601C240 601 255 601 270 601C285 601 300 601 315 601C330 601 345 601 360 601C375 601 390 601 405 601C420 601 435 601 450 601C465 601 480 601 495 601C510 601 525 601 540 601C555 601 570 601 585 601C600 601 615 601 630 601C645 601 660 601 675 601C690 601 705 601 720 601C735 601 750 601 765 601C780 601 795 601 810 601C825 601 840 601 855 601C870 601 885 601 892.5 601L900 601L900 509L892.5 511C885 513 870 517 855 520C840 523 825 525 810 522C795 519 780 511 765 512C750 513 735 523 720 528C705 533 690 533 675 529C660 525 645 517 630 507C615 497 600 485 585 479C570 473 555 473 540 475C525 477 510 481 495 490C480 499 465 513 450 517C435 521 420 515 405 517C390 519 375 529 360 525C345 521 330 503 315 500C300 497 285 509 270 511C255 513 240 505 225 503C210 501 195 505 180 507C165 509 150 509 135 509C120 509 105 509 90 508C75 507 60 505 45 501C30 497 15 491 7.5 488L0 485Z" fill="#75d866"></path></svg>