<svg id="visual" viewBox="0 0 900 600" width="900" height="600" xmlns="http://www.w3.org/2000/svg" xmlns:xlink="http://www.w3.org/1999/xlink" version="1.1"><path d="M0 43L7.5 40C15 37 30 31 45 30C60 29 75 33 90 34C105 35 120 33 135 32C150 31 165 31 180 31C195 31 210 31 225 33C240 35 255 39 270 38C285 37 300 31 315 31C330 31 345 37 360 37C375 37 390 31 405 31C420 31 435 37 450 38C465 39 480 35 495 34C510 33 525 35 540 34C555 33 570 29 585 29C600 29 615 33 630 36C645 39 660 41 675 39C690 37 705 31 720 30C735 29 750 33 765 35C780 37 795 37 810 35C825 33 840 29 855 27C870 25 885 25 892.5 25L900 25L900 0L892.5 0C885 0 870 0 855 0C840 0 825 0 810 0C795 0 780 0 765 0C750 0 735 0 720 0C705 0 690 0 675 0C660 0 645 0 630 0C615 0 600 0 585 0C570 0 555 0 540 0C525 0 510 0 495 0C480 0 465 0 450 0C435 0 420 0 405 0C390 0 375 0 360 0C345 0 330 0 315 0C300 0 285 0 270 0C255 0 240 0 225 0C210 0 195 0 180 0C165 0 150 0 135 0C120 0 105 0 90 0C75 0 60 0 45 0C30 0 15 0 7.5 0L0 0Z" fill="#d1e3cd"></path><path d="M0 67L7.5 66C15 65 30 63 45 64C60 65 75 69 90 69C105 69 120 65 135 62C150 59 165 57 180 59C195 61 210 67 225 70C240 73 255 73 270 71C285 69 300 65 315 67C330 69 345 77 360 76C375 75 390 65 405 65C420 65 435 75 450 78C465 81 480 77 495 73C510 69 525 65 540 64C555 63 570 65 585 65C600 65 615 63 630 66C645 69 660 77 675 77C690 77 705 69 720 66C735 63 750 65 765 68C780 71 795 75 810 75C825 75 840 71 855 69C870 67 885 67 892.5 67L900 67L900 23L892.5 23C885 23 870 23 855 25C840 27 825 31 810 33C795 35 780 35 765 33C750 31 735 27 720 28C705 29 690 35 675 37C660 39 645 37 630 34C615 31 600 27 585 27C570 27 555 31 540 32C525 33 510 31 495 32C480 33 465 37 450 36C435 35 420 29 405 29C390 29 375 35 360 35C345 35 330 29 315 29C300 29 285 35 270 36C255 37 240 33 225 31C210 29 195 29 180 29C165 29 150 29 135 30C120 31 105 33 90 32C75 31 60 27 45 28C30 29 15 35 7.5 38L0 41Z" fill="#c9e6c2"></path><path d="M0 103L7.5 103C15 103 30 103 45 107C60 111 75 119 90 120C105 121 120 115 135 112C150 109 165 109 180 112C195 115 210 121 225 120C240 119 255 111 270 106C285 101 300 99 315 103C330 107 345 117 360 118C375 119 390 111 405 113C420 115 435 127 450 130C465 133 480 127 495 123C510 119 525 117 540 117C555 117 570 119 585 118C600 117 615 113 630 113C645 113 660 117 675 117C690 117 705 113 720 109C735 105 750 101 765 102C780 103 795 109 810 112C825 115 840 115 855 114C870 113 885 111 892.5 110L900 109L900 65L892.5 65C885 65 870 65 855 67C840 69 825 73 810 73C795 73 780 69 765 66C750 63 735 61 720 64C705 67 690 75 675 75C660 75 645 67 630 64C615 61 600 63 585 63C570 63 555 61 540 62C525 63 510 67 495 71C480 75 465 79 450 76C435 73 420 63 405 63C390 63 375 73 360 74C345 75 330 67 315 65C300 63 285 67 270 69C255 71 240 71 225 68C210 65 195 59 180 57C165 55 150 57 135 60C120 63 105 67 90 67C75 67 60 63 45 62C30 61 15 63 7.5 64L0 65Z" fill="#c0e9b7"></path><path d="M0 217L7.5 221C15 225 30 233 45 239C60 245 75 249 90 250C105 251 120 249 135 245C150 241 165 235 180 240C195 245 210 261 225 260C240 259 255 241 270 238C285 235 300 247 315 254C330 261 345 263 360 258C375 253 390 241 405 242C420 243 435 257 450 265C465 273 480 275 495 267C510 259 525 241 540 235C555 229 570 235 585 237C600 239 615 237 630 242C645 247 660 259 675 263C690 267 705 263 720 250C735 237 750 215 765 214C780 213 795 233 810 242C825 251 840 249 855 247C870 245 885 243 892.5 242L900 241L900 107L892.5 108C885 109 870 111 855 112C840 113 825 113 810 110C795 107 780 101 765 100C750 99 735 103 720 107C705 111 690 115 675 115C660 115 645 111 630 111C615 111 600 115 585 116C570 117 555 115 540 115C525 115 510 117 495 121C480 125 465 131 450 128C435 125 420 113 405 111C390 109 375 117 360 116C345 115 330 105 315 101C300 97 285 99 270 104C255 109 240 117 225 118C210 119 195 113 180 110C165 107 150 107 135 110C120 113 105 119 90 118C75 117 60 109 45 105C30 101 15 101 7.5 101L0 101Z" fill="#b7ecac"></path><path d="M0 313L7.5 315C15 317 30 321 45 323C60 325 75 325 90 328C105 331 120 337 135 338C150 339 165 335 180 339C195 343 210 355 225 354C240 353 255 339 270 333C285 327 300 329 315 328C330 327 345 323 360 321C375 319 390 319 405 325C420 331 435 343 450 349C465 355 480 355 495 343C510 331 525 307 540 304C555 301 570 319 585 324C600 329 615 321 630 321C645 321 660 329 675 334C690 339 705 341 720 333C735 325 750 307 765 308C780 309 795 329 810 332C825 335 840 321 855 316C870 311 885 315 892.5 317L900 319L900 239L892.5 240C885 241 870 243 855 245C840 247 825 249 810 240C795 231 780 211 765 212C750 213 735 235 720 248C705 261 690 265 675 261C660 257 645 245 630 240C615 235 600 237 585 235C570 233 555 227 540 233C525 239 510 257 495 265C480 273 465 271 450 263C435 255 420 241 405 240C390 239 375 251 360 256C345 261 330 259 315 252C300 245 285 233 270 236C255 239 240 257 225 258C210 259 195 243 180 238C165 233 150 239 135 243C120 247 105 249 90 248C75 247 60 243 45 237C30 231 15 223 7.5 219L0 215Z" fill="#aeefa1"></path><path d="M0 373L7.5 374C15 375 30 377 45 378C60 379 75 379 90 381C105 383 120 387 135 386C150 385 165 379 180 383C195 387 210 401 225 400C240 399 255 383 270 376C285 369 300 371 315 371C330 371 345 369 360 366C375 363 390 359 405 364C420 369 435 383 450 392C465 401 480 405 495 395C510 385 525 361 540 358C555 355 570 373 585 377C600 381 615 371 630 372C645 373 660 385 675 388C690 391 705 385 720 378C735 371 750 363 765 366C780 369 795 383 810 384C825 385 840 373 855 368C870 363 885 365 892.5 366L900 367L900 317L892.5 315C885 313 870 309 855 314C840 319 825 333 810 330C795 327 780 307 765 306C750 305 735 323 720 331C705 339 690 337 675 332C660 327 645 319 630 319C615 319 600 327 585 322C570 317 555 299 540 302C525 305 510 329 495 341C480 353 465 353 450 347C435 341 420 329 405 323C390 317 375 317 360 319C345 321 330 325 315 326C300 327 285 325 270 331C255 337 240 351 225 352C210 353 195 341 180 337C165 333 150 337 135 336C120 335 105 329 90 326C75 323 60 323 45 321C30 319 15 315 7.5 313L0 311Z" fill="#a4f296"></path><path d="M0 409L7.5 412C15 415 30 421 45 421C60 421 75 415 90 417C105 419 120 429 135 428C150 427 165 415 180 416C195 417 210 431 225 431C240 431 255 417 270 412C285 407 300 411 315 413C330 415 345 415 360 410C375 405 390 395 405 399C420 403 435 421 450 433C465 445 480 451 495 440C510 429 525 401 540 395C555 389 570 405 585 409C600 413 615 405 630 409C645 413 660 429 675 431C690 433 705 421 720 412C735 403 750 397 765 400C780 403 795 415 810 415C825 415 840 403 855 399C870 395 885 399 892.5 401L900 403L900 365L892.5 364C885 363 870 361 855 366C840 371 825 383 810 382C795 381 780 367 765 364C750 361 735 369 720 376C705 383 690 389 675 386C660 383 645 371 630 370C615 369 600 379 585 375C570 371 555 353 540 356C525 359 510 383 495 393C480 403 465 399 450 390C435 381 420 367 405 362C390 357 375 361 360 364C345 367 330 369 315 369C300 369 285 367 270 374C255 381 240 397 225 398C210 399 195 385 180 381C165 377 150 383 135 384C120 385 105 381 90 379C75 377 60 377 45 376C30 375 15 373 7.5 372L0 371Z" fill="#9af58a"></path><path d="M0 523L7.5 525C15 527 30 531 45 532C60 533 75 531 90 533C105 535 120 541 135 540C150 539 165 531 180 527C195 523 210 523 225 523C240 523 255 523 270 523C285 523 300 523 315 524C330 525 345 527 360 526C375 525 390 521 405 521C420 521 435 525 450 529C465 533 480 537 495 536C510 535 525 529 540 528C555 527 570 531 585 537C600 543 615 551 630 555C645 559 660 559 675 553C690 547 705 535 720 529C735 523 750 523 765 525C780 527 795 531 810 535C825 539 840 543 855 544C870 545 885 543 892.5 542L900 541L900 401L892.5 399C885 397 870 393 855 397C840 401 825 413 810 413C795 413 780 401 765 398C750 395 735 401 720 410C705 419 690 431 675 429C660 427 645 411 630 407C615 403 600 411 585 407C570 403 555 387 540 393C525 399 510 427 495 438C480 449 465 443 450 431C435 419 420 401 405 397C390 393 375 403 360 408C345 413 330 413 315 411C300 409 285 405 270 410C255 415 240 429 225 429C210 429 195 415 180 414C165 413 150 425 135 426C120 427 105 417 90 415C75 413 60 419 45 419C30 419 15 413 7.5 410L0 407Z" fill="#8ff77e"></path><path d="M0 601L7.5 601C15 601 30 601 45 601C60 601 75 601 90 601C105 601 120 601 135 601C150 601 165 601 180 601C195 601 210 601 225 601C240 601 255 601 270 601C285 601 300 601 315 601C330 601 345 601 360 601C375 601 390 601 405 601C420 601 435 601 450 601C465 601 480 601 495 601C510 601 525 601 540 601C555 601 570 601 585 601C600 601 615 601 630 601C645 601 660 601 675 601C690 601 705 601 720 601C735 601 750 601 765 601C780 601 795 601 810 601C825 601 840 601 855 601C870 601 885 601 892.5 601L900 601L900 539L892.5 540C885 541 870 543 855 542C840 541 825 537 810 533C795 529 780 525 765 523C750 521 735 521 720 527C705 533 690 545 675 551C660 557 645 557 630 553C615 549 600 541 585 535C570 529 555 525 540 526C525 527 510 533 495 534C480 535 465 531 450 527C435 523 420 519 405 519C390 519 375 523 360 524C345 525 330 523 315 522C300 521 285 521 270 521C255 521 240 521 225 521C210 521 195 521 180 525C165 529 150 537 135 538C120 539 105 533 90 531C75 529 60 531 45 530C30 529 15 525 7.5 523L0 521Z" fill="#83fa71"></path></svg>