<svg id="visual" viewBox="0 0 900 600" width="900" height="600" xmlns="http://www.w3.org/2000/svg" xmlns:xlink="http://www.w3.org/1999/xlink" version="1.1"><rect x="0" y="0" width="900" height="600" fill="#efefef"></rect><path d="M0 397L21.5 393C43 389 86 381 128.8 385.3C171.7 389.7 214.3 406.3 257.2 406C300 405.7 343 388.3 385.8 381.5C428.7 374.7 471.3 378.3 514.2 379.7C557 381 600 380 642.8 382.2C685.7 384.3 728.3 389.7 771.2 400.8C814 412 857 429 878.5 437.5L900 446L900 601L878.5 601C857 601 814 601 771.2 601C728.3 601 685.7 601 642.8 601C600 601 557 601 514.2 601C471.3 601 428.7 601 385.8 601C343 601 300 601 257.2 601C214.3 601 171.7 601 128.8 601C86 601 43 601 21.5 601L0 601Z" fill="#69fa9e"></path><path d="M0 473L21.5 466.5C43 460 86 447 128.8 441.2C171.7 435.3 214.3 436.7 257.2 434.2C300 431.7 343 425.3 385.8 421.8C428.7 418.3 471.3 417.7 514.2 414.8C557 412 600 407 642.8 415.3C685.7 423.7 728.3 445.3 771.2 449C814 452.7 857 438.3 878.5 431.2L900 424L900 601L878.5 601C857 601 814 601 771.2 601C728.3 601 685.7 601 642.8 601C600 601 557 601 514.2 601C471.3 601 428.7 601 385.8 601C343 601 300 601 257.2 601C214.3 601 171.7 601 128.8 601C86 601 43 601 21.5 601L0 601Z" fill="#53eea3"></path><path d="M0 471L21.5 471.7C43 472.3 86 473.7 128.8 469.3C171.7 465 214.3 455 257.2 459.3C300 463.7 343 482.3 385.8 485.5C428.7 488.7 471.3 476.3 514.2 470.8C557 465.3 600 466.7 642.8 470C685.7 473.3 728.3 478.7 771.2 479.2C814 479.7 857 475.3 878.5 473.2L900 471L900 601L878.5 601C857 601 814 601 771.2 601C728.3 601 685.7 601 642.8 601C600 601 557 601 514.2 601C471.3 601 428.7 601 385.8 601C343 601 300 601 257.2 601C214.3 601 171.7 601 128.8 601C86 601 43 601 21.5 601L0 601Z" fill="#3fe1a7"></path><path d="M0 494L21.5 495.5C43 497 86 500 128.8 501.7C171.7 503.3 214.3 503.7 257.2 502.3C300 501 343 498 385.8 498.7C428.7 499.3 471.3 503.7 514.2 509.3C557 515 600 522 642.8 522.8C685.7 523.7 728.3 518.3 771.2 514.2C814 510 857 507 878.5 505.5L900 504L900 601L878.5 601C857 601 814 601 771.2 601C728.3 601 685.7 601 642.8 601C600 601 557 601 514.2 601C471.3 601 428.7 601 385.8 601C343 601 300 601 257.2 601C214.3 601 171.7 601 128.8 601C86 601 43 601 21.5 601L0 601Z" fill="#2ed4a9"></path><path d="M0 538L21.5 543.5C43 549 86 560 128.8 559.5C171.7 559 214.3 547 257.2 545.5C300 544 343 553 385.8 553.7C428.7 554.3 471.3 546.7 514.2 547.3C557 548 600 557 642.8 561C685.7 565 728.3 564 771.2 559C814 554 857 545 878.5 540.5L900 536L900 601L878.5 601C857 601 814 601 771.2 601C728.3 601 685.7 601 642.8 601C600 601 557 601 514.2 601C471.3 601 428.7 601 385.8 601C343 601 300 601 257.2 601C214.3 601 171.7 601 128.8 601C86 601 43 601 21.5 601L0 601Z" fill="#24c7a9"></path></svg>