<svg id="visual" viewBox="0 0 900 600" width="900" height="600" xmlns="http://www.w3.org/2000/svg" xmlns:xlink="http://www.w3.org/1999/xlink" version="1.1"><path d="M0 109L13.7 102C27.3 95 54.7 81 82 83C109.3 85 136.7 103 163.8 101C191 99 218 77 245.2 65C272.3 53 299.7 51 327 51C354.3 51 381.7 53 409 57C436.3 61 463.7 67 491 75C518.3 83 545.7 93 573 91C600.3 89 627.7 75 654.8 66C682 57 709 53 736.2 50C763.3 47 790.7 45 818 51C845.3 57 872.7 71 886.3 78L900 85L900 0L886.3 0C872.7 0 845.3 0 818 0C790.7 0 763.3 0 736.2 0C709 0 682 0 654.8 0C627.7 0 600.3 0 573 0C545.7 0 518.3 0 491 0C463.7 0 436.3 0 409 0C381.7 0 354.3 0 327 0C299.7 0 272.3 0 245.2 0C218 0 191 0 163.8 0C136.7 0 109.3 0 82 0C54.7 0 27.3 0 13.7 0L0 0Z" fill="#cff6df"></path><path d="M0 373L13.7 338C27.3 303 54.7 233 82 232C109.3 231 136.7 299 163.8 324C191 349 218 331 245.2 316C272.3 301 299.7 289 327 277C354.3 265 381.7 253 409 237C436.3 221 463.7 201 491 218C518.3 235 545.7 289 573 318C600.3 347 627.7 351 654.8 335C682 319 709 283 736.2 248C763.3 213 790.7 179 818 186C845.3 193 872.7 241 886.3 265L900 289L900 83L886.3 76C872.7 69 845.3 55 818 49C790.7 43 763.3 45 736.2 48C709 51 682 55 654.8 64C627.7 73 600.3 87 573 89C545.7 91 518.3 81 491 73C463.7 65 436.3 59 409 55C381.7 51 354.3 49 327 49C299.7 49 272.3 51 245.2 63C218 75 191 97 163.8 99C136.7 101 109.3 83 82 81C54.7 79 27.3 93 13.7 100L0 107Z" fill="#c5f4d6"></path><path d="M0 469L13.7 462C27.3 455 54.7 441 82 439C109.3 437 136.7 447 163.8 447C191 447 218 437 245.2 435C272.3 433 299.7 439 327 436C354.3 433 381.7 421 409 410C436.3 399 463.7 389 491 396C518.3 403 545.7 427 573 439C600.3 451 627.7 451 654.8 452C682 453 709 455 736.2 445C763.3 435 790.7 413 818 411C845.3 409 872.7 427 886.3 436L900 445L900 287L886.3 263C872.7 239 845.3 191 818 184C790.7 177 763.3 211 736.2 246C709 281 682 317 654.8 333C627.7 349 600.3 345 573 316C545.7 287 518.3 233 491 216C463.7 199 436.3 219 409 235C381.7 251 354.3 263 327 275C299.7 287 272.3 299 245.2 314C218 329 191 347 163.8 322C136.7 297 109.3 229 82 230C54.7 231 27.3 301 13.7 336L0 371Z" fill="#bbf1cd"></path><path d="M0 553L13.7 548C27.3 543 54.7 533 82 525C109.3 517 136.7 511 163.8 501C191 491 218 477 245.2 481C272.3 485 299.7 507 327 509C354.3 511 381.7 493 409 477C436.3 461 463.7 447 491 452C518.3 457 545.7 481 573 500C600.3 519 627.7 533 654.8 537C682 541 709 535 736.2 519C763.3 503 790.7 477 818 480C845.3 483 872.7 515 886.3 531L900 547L900 443L886.3 434C872.7 425 845.3 407 818 409C790.7 411 763.3 433 736.2 443C709 453 682 451 654.8 450C627.7 449 600.3 449 573 437C545.7 425 518.3 401 491 394C463.7 387 436.3 397 409 408C381.7 419 354.3 431 327 434C299.7 437 272.3 431 245.2 433C218 435 191 445 163.8 445C136.7 445 109.3 435 82 437C54.7 439 27.3 453 13.7 460L0 467Z" fill="#b0efc5"></path><path d="M0 601L13.7 601C27.3 601 54.7 601 82 601C109.3 601 136.7 601 163.8 601C191 601 218 601 245.2 601C272.3 601 299.7 601 327 601C354.3 601 381.7 601 409 601C436.3 601 463.7 601 491 601C518.3 601 545.7 601 573 601C600.3 601 627.7 601 654.8 601C682 601 709 601 736.2 601C763.3 601 790.7 601 818 601C845.3 601 872.7 601 886.3 601L900 601L900 545L886.3 529C872.7 513 845.3 481 818 478C790.7 475 763.3 501 736.2 517C709 533 682 539 654.8 535C627.7 531 600.3 517 573 498C545.7 479 518.3 455 491 450C463.7 445 436.3 459 409 475C381.7 491 354.3 509 327 507C299.7 505 272.3 483 245.2 479C218 475 191 489 163.8 499C136.7 509 109.3 515 82 523C54.7 531 27.3 541 13.7 546L0 551Z" fill="#a4ecbc"></path></svg>